<mxfile host="app.diagrams.net" modified="2023-09-28T15:17:30.621Z" agent="Mozilla/5.0 (Windows NT 10.0; Win64; x64; rv:109.0) Gecko/20100101 Firefox/118.0" etag="3i2O6u6vVF9zuFUZj1JQ" version="22.0.0" type="device">
  <diagram name="Страница — 1" id="GhVxuQcRyr4QLg4CjkYg">
    <mxGraphModel dx="1687" dy="825" grid="1" gridSize="10" guides="1" tooltips="1" connect="1" arrows="1" fold="1" page="1" pageScale="1" pageWidth="1169" pageHeight="827" math="0" shadow="0">
      <root>
        <mxCell id="0" />
        <mxCell id="1" parent="0" />
        <mxCell id="v5agYToH5Nl5yKblKVHG-29" value="&lt;div&gt;Працівник центру&amp;nbsp;&lt;/div&gt;&lt;div&gt;&amp;nbsp;здоров&#39;я&lt;/div&gt;" style="shape=umlActor;verticalLabelPosition=bottom;verticalAlign=top;html=1;outlineConnect=0;" parent="1" vertex="1">
          <mxGeometry x="1010" y="480" width="30" height="60" as="geometry" />
        </mxCell>
        <mxCell id="v5agYToH5Nl5yKblKVHG-30" value="Користувач" style="shape=umlActor;verticalLabelPosition=bottom;verticalAlign=top;html=1;outlineConnect=0;" parent="1" vertex="1">
          <mxGeometry x="1723" y="470" width="30" height="60" as="geometry" />
        </mxCell>
        <mxCell id="v5agYToH5Nl5yKblKVHG-31" value="Споживач" style="shape=umlActor;verticalLabelPosition=bottom;verticalAlign=top;html=1;outlineConnect=0;" parent="1" vertex="1">
          <mxGeometry x="1723" y="290" width="30" height="60" as="geometry" />
        </mxCell>
        <mxCell id="v5agYToH5Nl5yKblKVHG-33" value="" style="rounded=0;whiteSpace=wrap;html=1;fillColor=none;" parent="1" vertex="1">
          <mxGeometry x="1105" y="60" width="530" height="650" as="geometry" />
        </mxCell>
        <mxCell id="v5agYToH5Nl5yKblKVHG-35" value="Авторизація" style="ellipse;whiteSpace=wrap;html=1;" parent="1" vertex="1">
          <mxGeometry x="1280" y="515" width="180" height="60" as="geometry" />
        </mxCell>
        <mxCell id="v5agYToH5Nl5yKblKVHG-36" value="" style="endArrow=classic;html=1;rounded=0;entryX=1;entryY=0.5;entryDx=0;entryDy=0;" parent="1" source="v5agYToH5Nl5yKblKVHG-30" target="v5agYToH5Nl5yKblKVHG-35" edge="1">
          <mxGeometry width="50" height="50" relative="1" as="geometry">
            <mxPoint x="250" y="470" as="sourcePoint" />
            <mxPoint x="360" y="540" as="targetPoint" />
          </mxGeometry>
        </mxCell>
        <mxCell id="v5agYToH5Nl5yKblKVHG-37" value="Надає відповіді на питання" style="ellipse;whiteSpace=wrap;html=1;" parent="1" vertex="1">
          <mxGeometry x="1280" y="635" width="180" height="60" as="geometry" />
        </mxCell>
        <mxCell id="v5agYToH5Nl5yKblKVHG-38" value="&lt;div&gt;Надання питань &lt;br&gt;&lt;/div&gt;" style="ellipse;whiteSpace=wrap;html=1;" parent="1" vertex="1">
          <mxGeometry x="1280" y="388.5" width="180" height="60" as="geometry" />
        </mxCell>
        <mxCell id="v5agYToH5Nl5yKblKVHG-39" value="" style="endArrow=classic;html=1;rounded=0;entryX=1;entryY=0.5;entryDx=0;entryDy=0;" parent="1" target="v5agYToH5Nl5yKblKVHG-38" edge="1">
          <mxGeometry width="50" height="50" relative="1" as="geometry">
            <mxPoint x="1700" y="300" as="sourcePoint" />
            <mxPoint x="1380" y="520" as="targetPoint" />
          </mxGeometry>
        </mxCell>
        <mxCell id="v5agYToH5Nl5yKblKVHG-40" value="" style="endArrow=classic;html=1;rounded=0;entryX=0;entryY=0.5;entryDx=0;entryDy=0;" parent="1" source="v5agYToH5Nl5yKblKVHG-29" target="v5agYToH5Nl5yKblKVHG-37" edge="1">
          <mxGeometry width="50" height="50" relative="1" as="geometry">
            <mxPoint x="1130" y="468" as="sourcePoint" />
            <mxPoint x="1390" y="530" as="targetPoint" />
          </mxGeometry>
        </mxCell>
        <mxCell id="v5agYToH5Nl5yKblKVHG-41" value="Аналіз&lt;br&gt;наданої інформації" style="ellipse;whiteSpace=wrap;html=1;" parent="1" vertex="1">
          <mxGeometry x="1285" y="310" width="180" height="60" as="geometry" />
        </mxCell>
        <mxCell id="v5agYToH5Nl5yKblKVHG-42" value="Отримання&lt;br&gt;повідомлення про проблеми" style="ellipse;whiteSpace=wrap;html=1;" parent="1" vertex="1">
          <mxGeometry x="1280" y="190" width="190" height="60" as="geometry" />
        </mxCell>
        <mxCell id="v5agYToH5Nl5yKblKVHG-43" value="Надсилання та&lt;br&gt;отримання повідомлення&lt;br&gt;про ситість " style="ellipse;whiteSpace=wrap;html=1;" parent="1" vertex="1">
          <mxGeometry x="1285" y="75" width="180" height="60" as="geometry" />
        </mxCell>
        <mxCell id="v5agYToH5Nl5yKblKVHG-44" value="" style="endArrow=classic;html=1;rounded=0;entryX=0;entryY=0.5;entryDx=0;entryDy=0;" parent="1" source="v5agYToH5Nl5yKblKVHG-28" target="v5agYToH5Nl5yKblKVHG-41" edge="1">
          <mxGeometry width="50" height="50" relative="1" as="geometry">
            <mxPoint x="1120" y="302" as="sourcePoint" />
            <mxPoint x="1380" y="424" as="targetPoint" />
          </mxGeometry>
        </mxCell>
        <mxCell id="v5agYToH5Nl5yKblKVHG-46" value="" style="endArrow=classic;html=1;rounded=0;entryX=1;entryY=0.5;entryDx=0;entryDy=0;" parent="1" target="v5agYToH5Nl5yKblKVHG-42" edge="1">
          <mxGeometry width="50" height="50" relative="1" as="geometry">
            <mxPoint x="1700" y="300" as="sourcePoint" />
            <mxPoint x="1390" y="520" as="targetPoint" />
          </mxGeometry>
        </mxCell>
        <mxCell id="v5agYToH5Nl5yKblKVHG-47" value="" style="endArrow=classic;html=1;rounded=0;entryX=1;entryY=0.5;entryDx=0;entryDy=0;" parent="1" target="v5agYToH5Nl5yKblKVHG-43" edge="1">
          <mxGeometry width="50" height="50" relative="1" as="geometry">
            <mxPoint x="1700" y="300" as="sourcePoint" />
            <mxPoint x="1400" y="530" as="targetPoint" />
          </mxGeometry>
        </mxCell>
        <mxCell id="v5agYToH5Nl5yKblKVHG-49" value="" style="endArrow=block;endSize=16;endFill=0;html=1;rounded=0;" parent="1" edge="1">
          <mxGeometry x="0.0059" width="160" relative="1" as="geometry">
            <mxPoint x="1737.4099999999999" y="383.5" as="sourcePoint" />
            <mxPoint x="1737.4099999999999" y="453.5" as="targetPoint" />
            <mxPoint as="offset" />
          </mxGeometry>
        </mxCell>
        <mxCell id="v5agYToH5Nl5yKblKVHG-50" value="" style="endArrow=block;endSize=16;endFill=0;html=1;rounded=0;" parent="1" edge="1">
          <mxGeometry x="0.0059" width="160" relative="1" as="geometry">
            <mxPoint x="1025" y="590" as="sourcePoint" />
            <mxPoint x="1740" y="560" as="targetPoint" />
            <mxPoint as="offset" />
            <Array as="points">
              <mxPoint x="1025" y="740" />
              <mxPoint x="1080" y="740" />
              <mxPoint x="1450" y="740" />
              <mxPoint x="1740" y="740" />
            </Array>
          </mxGeometry>
        </mxCell>
        <mxCell id="v5agYToH5Nl5yKblKVHG-54" value="Include" style="endArrow=open;endSize=12;dashed=1;html=1;rounded=0;entryX=0.5;entryY=1;entryDx=0;entryDy=0;exitX=0.5;exitY=0;exitDx=0;exitDy=0;" parent="1" source="v5agYToH5Nl5yKblKVHG-35" target="v5agYToH5Nl5yKblKVHG-38" edge="1">
          <mxGeometry x="0.0105" width="160" relative="1" as="geometry">
            <mxPoint x="1225" y="375" as="sourcePoint" />
            <mxPoint x="1385" y="375" as="targetPoint" />
            <mxPoint as="offset" />
          </mxGeometry>
        </mxCell>
        <mxCell id="v5agYToH5Nl5yKblKVHG-55" value="&lt;div&gt;Include&lt;/div&gt;" style="endArrow=open;endSize=12;dashed=1;html=1;rounded=0;entryX=0.5;entryY=0;entryDx=0;entryDy=0;exitX=0.5;exitY=1;exitDx=0;exitDy=0;" parent="1" source="v5agYToH5Nl5yKblKVHG-35" target="v5agYToH5Nl5yKblKVHG-37" edge="1">
          <mxGeometry width="160" relative="1" as="geometry">
            <mxPoint x="1245" y="375" as="sourcePoint" />
            <mxPoint x="1405" y="375" as="targetPoint" />
          </mxGeometry>
        </mxCell>
        <mxCell id="v5agYToH5Nl5yKblKVHG-56" value="Include" style="endArrow=open;endSize=12;dashed=1;html=1;rounded=0;entryX=0.5;entryY=1;entryDx=0;entryDy=0;exitX=0.5;exitY=0;exitDx=0;exitDy=0;" parent="1" source="v5agYToH5Nl5yKblKVHG-41" target="v5agYToH5Nl5yKblKVHG-42" edge="1">
          <mxGeometry width="160" relative="1" as="geometry">
            <mxPoint x="1415" y="375" as="sourcePoint" />
            <mxPoint x="1575" y="375" as="targetPoint" />
          </mxGeometry>
        </mxCell>
        <mxCell id="v5agYToH5Nl5yKblKVHG-57" value="Include" style="endArrow=open;endSize=12;dashed=1;html=1;rounded=0;entryX=0.5;entryY=1;entryDx=0;entryDy=0;exitX=0.5;exitY=0;exitDx=0;exitDy=0;" parent="1" source="v5agYToH5Nl5yKblKVHG-42" target="v5agYToH5Nl5yKblKVHG-43" edge="1">
          <mxGeometry width="160" relative="1" as="geometry">
            <mxPoint x="1415" y="375" as="sourcePoint" />
            <mxPoint x="1575" y="375" as="targetPoint" />
          </mxGeometry>
        </mxCell>
        <mxCell id="GR3_XHhtzF74qlDAhqL8-3" value="" style="edgeStyle=orthogonalEdgeStyle;rounded=0;orthogonalLoop=1;jettySize=auto;html=1;" edge="1" parent="1" target="v5agYToH5Nl5yKblKVHG-28">
          <mxGeometry relative="1" as="geometry">
            <mxPoint x="1024.41" y="460" as="sourcePoint" />
            <mxPoint x="1024" y="320" as="targetPoint" />
          </mxGeometry>
        </mxCell>
        <mxCell id="v5agYToH5Nl5yKblKVHG-28" value="&lt;div&gt;Google Health API&lt;/div&gt;" style="shape=umlActor;verticalLabelPosition=bottom;verticalAlign=top;html=1;outlineConnect=0;" parent="1" vertex="1">
          <mxGeometry x="1010" y="320" width="30" height="60" as="geometry" />
        </mxCell>
      </root>
    </mxGraphModel>
  </diagram>
</mxfile>
